<svg width="1189" height="139" viewBox="0 0 1189 139" fill="none" xmlns="http://www.w3.org/2000/svg">
    <path fill-rule="evenodd" clip-rule="evenodd"
          d="M1151.98 43.22L1155.9 42.986C1152.85 40.438 1151.54 36.958 1151.54 32.556C1151.54 27.92 1153.28 24.675 1156.77 22.821C1153.29 20.268 1151.54 16.559 1151.54 11.911C1151.54 7.97298 1152.63 4.95698 1154.81 3.10298C1156.99 1.24798 1160.27 0.320984 1164.63 0.320984H1188.69V9.36498H1165.62C1163.58 9.42998 1162.22 9.88298 1161.31 10.559C1160.41 11.235 1159.95 12.817 1159.95 14.622C1159.95 17.557 1161.31 19.363 1164.04 20.622H1188.7V29.682H1165.56C1163.48 29.682 1161.86 30.14 1160.93 30.833C1160 31.753 1159.54 33.135 1159.54 34.978C1159.54 37.744 1160.7 39.587 1163.02 40.978H1188.7V49.994H1152.43V43.225L1151.98 43.22ZM1170.61 80.31C1174.01 80.31 1176.51 79.634 1178.32 78.505C1181.31 76.275 1181.93 72.04 1179.7 69.048C1179.31 68.523 1178.84 68.058 1178.32 67.667C1176.51 66.314 1173.79 65.637 1169.93 65.637C1166.53 65.637 1164.03 66.314 1162.22 67.667C1159.23 69.897 1158.61 74.131 1160.84 77.124C1161.23 77.649 1161.69 78.114 1162.22 78.505C1164.03 79.857 1166.76 80.31 1170.61 80.31ZM1169.93 90.624C1166.59 90.676 1163.29 89.973 1160.27 88.568C1157.57 87.282 1155.33 85.207 1153.83 82.617C1152.23 80.103 1151.54 77.13 1151.54 73.699C1151.54 68.894 1152.92 65.005 1155.9 61.803C1158.89 58.825 1162.8 56.998 1168.08 56.769H1170.61C1176.13 56.769 1180.5 58.367 1183.94 61.345C1187.16 64.318 1189 68.436 1189 73.699C1189 78.963 1187.39 83.075 1183.94 86.053C1180.73 89.026 1176.13 90.624 1170.38 90.624H1169.93ZM1181.04 108.526C1181.11 106.981 1180.63 105.46 1179.68 104.239C1178.77 103.11 1177.41 102.657 1177.36 102.428V93.853C1178.32 93.853 1180.37 94.53 1182.41 95.883C1184.38 97.21 1186.02 98.99 1187.17 101.075C1188.28 103.398 1188.82 105.951 1188.75 108.526C1188.75 113.49 1187.17 117.553 1183.99 120.488C1180.82 123.422 1176.28 124.775 1170.61 124.486H1169.93C1164.48 124.775 1160.18 123.422 1156.78 120.488C1153.6 117.553 1151.79 113.719 1151.79 108.526C1151.79 104.01 1153.15 100.622 1155.65 97.917C1158.14 95.212 1161.54 93.853 1166.01 93.853V102.657C1163.8 102.657 1162.19 103.333 1161.07 104.462C1158.67 106.824 1158.64 110.685 1161 113.086C1161.24 113.322 1161.49 113.539 1161.76 113.735C1163.34 114.864 1166.06 115.311 1169.47 115.475H1170.37C1174 115.311 1176.72 114.864 1178.31 113.735C1180.1 112.628 1181.15 110.631 1181.04 108.526ZM1182.92 138.356C1181.21 138.356 1179.99 137.903 1179.01 136.78C1177.06 134.593 1177.06 131.286 1179.01 129.1C1180.03 128.031 1181.45 127.456 1182.92 127.524C1184.64 127.524 1185.86 127.976 1186.83 129.1C1187.84 130.112 1188.37 131.496 1188.3 132.918C1188.33 134.333 1187.8 135.702 1186.83 136.736C1185.86 137.903 1184.64 138.356 1182.92 138.356Z"
          fill="white"/>
    <path fill-rule="evenodd" clip-rule="evenodd"
          d="M663.504 138.302H648.085C643.256 138.338 638.679 136.149 635.676 132.366L566.323 44.6214V136.752C566.274 137.587 565.603 138.25 564.768 138.29H542.078C541.229 138.29 540.54 137.601 540.54 136.752V1.85344C540.534 1.00444 541.217 0.310443 542.067 0.304443H542.078H554.863C559.701 0.304443 564.321 2.72044 567.408 6.23944L636.68 94.3054V1.85344C636.677 1.00144 637.365 0.307443 638.218 0.304443H638.223H663.711C664.561 0.304443 665.25 0.993443 665.25 1.84244V136.752C665.103 137.614 664.377 138.257 663.504 138.302Z"
          fill="white"/>
    <path fill-rule="evenodd" clip-rule="evenodd"
          d="M983.133 138.302H967.714C962.885 138.338 958.308 136.149 955.305 132.366L885.952 44.6214V136.752C885.903 137.587 885.233 138.25 884.398 138.29H861.707C860.858 138.29 860.169 137.601 860.169 136.752V1.85344C860.163 1.00444 860.847 0.310443 861.696 0.304443H861.707H874.492C879.33 0.304443 883.95 2.72044 887.037 6.23944L956.309 94.3054V1.85344C956.306 1.00144 956.994 0.307443 957.847 0.304443H957.852H983.341C984.191 0.304443 984.879 0.993443 984.879 1.84244V136.752C984.732 137.614 984.006 138.257 983.133 138.302Z"
          fill="white"/>
    <mask id="mask0" mask-type="alpha" maskUnits="userSpaceOnUse" x="0" y="0" width="138" height="139">
        <path d="M0 0.304321H137.997V138.301H0V0.304321Z" fill="white"/>
    </mask>
    <g mask="url(#mask0)">
        <path fill-rule="evenodd" clip-rule="evenodd"
              d="M111.914 138.301L69.2056 29.0055L27.3756 138.301H-0.000427246L52.1226 6.2285C53.4916 2.6935 56.8736 0.347501 60.6636 0.304349H78.1886C81.9986 0.282501 85.4126 2.6525 86.7256 6.2285L137.997 138.301H111.914Z"
              fill="white"/>
    </g>
    <path fill-rule="evenodd" clip-rule="evenodd"
          d="M721.463 22.2151H681.602C680.756 22.2151 680.069 21.5291 680.069 20.6821V1.8481C680.069 0.970101 680.069 0.316101 681.602 0.316101H792.436C793.282 0.316101 793.969 1.0021 793.969 1.8481V20.6821C793.969 21.5281 793.282 22.2151 792.436 22.2151H750.164V136.758C750.112 137.586 749.449 138.245 748.62 138.291H723.219C722.373 138.294 721.684 137.61 721.681 136.763V136.758V22.2151H721.463Z"
          fill="white"/>
    <path fill-rule="evenodd" clip-rule="evenodd"
          d="M518.75 138.301H495.509C494.688 138.245 494.036 137.589 493.986 136.768V1.84844C493.98 1.00144 494.663 0.310443 495.509 0.304443H495.52H518.75C519.57 0.366443 520.217 1.02744 520.261 1.84844V136.758C520.054 137.635 519.399 138.301 518.75 138.301Z"
          fill="white"/>
    <mask id="mask1" mask-type="alpha" maskUnits="userSpaceOnUse" x="345" y="4" width="128" height="132">
        <path
            d="M472.102 61.7159C470.788 50.684 466.755 40.1614 460.372 31.1115C459.953 30.5183 459.525 29.9326 459.088 29.3545C447.418 13.9208 429.246 4 408.833 4C373.619 4 345.072 33.5237 345.072 69.943C345.068 75.3454 345.705 80.7287 346.971 85.9777C347.838 91.0203 352.429 102.226 355.934 106.756L355.951 106.798C367.408 124.349 386.818 135.886 408.833 135.886C444.047 135.886 472.594 106.362 472.594 69.943C472.594 67.1932 472.43 64.4458 472.102 61.7159Z"
            fill="white"/>
    </mask>
    <g mask="url(#mask1)">
        <path
            d="M472.102 61.7159C470.788 50.684 466.755 40.1614 460.372 31.1115C459.953 30.5183 459.525 29.9326 459.088 29.3545C447.418 13.9208 429.246 4 408.833 4C373.619 4 345.072 33.5237 345.072 69.943C345.068 75.3454 345.705 80.7287 346.971 85.9777C347.838 91.0203 352.429 102.226 355.934 106.756L355.951 106.798C367.408 124.349 386.818 135.886 408.833 135.886C444.047 135.886 472.594 106.362 472.594 69.943C472.594 67.1932 472.43 64.4458 472.102 61.7159Z"
            fill="white"/>
        <path fill-rule="evenodd" clip-rule="evenodd"
              d="M341.207 114.592C336.666 110.051 336.666 102.689 341.207 98.1475L382.395 57.4219C399.471 75.954 407.55 84.7565 406.633 83.8293C404.358 81.5304 401.201 80.1062 397.711 80.1062C394.85 80.1062 392.921 80.5226 390.102 82.6749C388.222 84.1098 377.406 94.7489 357.652 114.592C353.111 119.134 345.748 119.134 341.207 114.592Z"
              fill="#3E3E3E"/>
    </g>
    <path fill-rule="evenodd" clip-rule="evenodd"
          d="M478.633 53.5786L442.874 89.2503L426.937 73.5944L474.905 25.5641C475.686 24.7826 476.952 24.7817 477.733 25.5623C478.103 25.9317 478.314 26.4312 478.32 26.9539L478.633 53.5786Z"
          fill="#39A2FF"/>
    <path fill-rule="evenodd" clip-rule="evenodd"
          d="M405.327 50.3292L405.466 50.4662L434.736 79.9362L434.735 79.9363L434.746 79.947C435.552 80.7366 438.737 83.6459 442.97 83.6933C447.313 83.742 449.733 82.4526 451.995 80.2483L443.401 88.7612L435.255 96.7226C430.765 101.212 423.561 101.333 418.926 97.0833L418.774 96.9415L418.766 96.9341C418.74 96.9094 418.714 96.8846 418.688 96.8596L392.127 69.4284C391.997 69.2935 391.871 69.164 391.751 69.0399L390.066 67.2997C389.368 66.6073 386.127 63.5442 381.783 63.4955C377.44 63.4468 375.02 64.7362 372.758 66.9405L381.352 58.4276L388.76 50.4662C393.327 45.8991 400.703 45.8534 405.327 50.3292Z"
          fill="#E7E7E7"/>
    <path fill-rule="evenodd" clip-rule="evenodd"
          d="M838.924 138.301H815.683C814.862 138.245 814.211 137.589 814.161 136.768V1.84844C814.154 1.00144 814.836 0.310443 815.683 0.304443H815.694H838.924C839.744 0.366443 840.391 1.02744 840.435 1.84844V136.758C840.228 137.635 839.573 138.301 838.924 138.301Z"
          fill="white"/>
    <path fill-rule="evenodd" clip-rule="evenodd"
          d="M1116.84 11.759C1114.53 10.722 1098.59 0.347961 1072.17 0.347961C1041.34 0.347961 999.186 15.91 999.186 68.196C999.186 120.482 1045.95 138.301 1072.59 138.301C1099.22 138.301 1114.11 130.622 1122.92 123.984V64.034C1122.92 64.034 1123.13 61.956 1120.4 61.956H1070.7C1069.23 61.956 1068.6 62.79 1068.6 64.034C1068.6 65.071 1069.02 79.181 1069.02 79.181C1069.02 79.181 1069.02 80.632 1070.91 80.632H1096.29C1096.29 80.632 1097.96 80.632 1097.96 82.704V112.158C1067.76 123.776 1024.77 111.744 1024.77 67.547C1024.77 28.749 1056.65 20.246 1072.38 20.246C1088.74 20.246 1103.83 27.091 1108.24 28.973C1111.18 30.222 1112.22 28.144 1112.22 28.144L1118.51 16.122C1118.31 16.122 1119.77 13.199 1116.84 11.759Z"
          fill="white"/>
    <path fill-rule="evenodd" clip-rule="evenodd"
          d="M304.505 1C318.777 1 331.626 5.39865 342.643 12.929C337.618 18.8467 333.369 25.4861 330.06 32.6766C322.799 28.1318 313.444 25.264 304.505 25.264C279.998 25.264 260.188 45.043 260.188 69.511C260.188 93.979 279.998 113.758 304.505 113.758C313.294 113.758 322.486 110.253 329.694 105.636C330.091 106.537 330.499 107.429 330.914 108.302L331.414 109.34L331.919 110.354C333.356 113.192 334.831 115.702 336.183 117.448L336.206 117.503C338.315 120.733 340.631 123.807 343.134 126.705C332.227 134.153 318.753 138.022 304.505 138.022C266.723 138.022 236.089 107.437 236.089 69.715C236.089 31.586 266.723 1 304.505 1Z"
          fill="white"/>
    <path fill-rule="evenodd" clip-rule="evenodd"
          d="M199.416 1C213.688 1 226.537 5.39865 237.554 12.929C232.529 18.8467 228.281 25.4861 224.971 32.6766C217.71 28.1318 208.355 25.264 199.416 25.264C174.909 25.264 155.099 45.043 155.099 69.511C155.099 93.979 174.909 113.758 199.416 113.758C208.205 113.758 217.397 110.253 224.605 105.636C225.002 106.537 225.41 107.429 225.825 108.302L226.325 109.34L226.83 110.354C228.267 113.192 229.743 115.702 231.094 117.448L231.117 117.503C233.226 120.733 235.542 123.807 238.045 126.705C227.138 134.153 213.664 138.022 199.416 138.022C161.634 138.022 131 107.437 131 69.715C131 31.586 161.634 1 199.416 1Z"
          fill="white"/>
</svg>
